<?xml version="1.0" standalone="no"?>
<!DOCTYPE svg PUBLIC "-//W3C//DTD SVG 20010904//EN"
 "http://www.w3.org/TR/2001/REC-SVG-20010904/DTD/svg10.dtd">
<svg version="1.0" xmlns="http://www.w3.org/2000/svg"
 width="260.000000pt" height="260.000000pt" viewBox="0 0 260.000000 260.000000"
 preserveAspectRatio="xMidYMid meet">
<metadata>
Created by potrace 1.11, written by Peter Selinger 2001-2013
</metadata>
<g transform="translate(0.000000,260.000000) scale(0.100000,-0.100000)"
fill="#000000" stroke="none">
<path d="M1260 2355 c-323 -63 -579 -317 -645 -640 -4 -16 -9 -70 -12 -120
-23 -387 250 -738 642 -824 l80 -18 3 -84 c2 -83 2 -84 -26 -103 -93 -62 -108
-198 -31 -277 109 -112 294 -54 318 100 10 64 -13 122 -67 167 -37 32 -37 32
-38 113 0 45 3 81 8 81 10 0 3 -1 104 21 133 29 252 87 361 176 47 38 46 42
-2 98 -30 35 -28 32 -164 195 -57 69 -110 132 -118 141 -12 14 -10 23 8 65 80
187 -50 386 -256 393 -187 6 -327 -170 -279 -351 23 -90 107 -175 198 -199 37
-10 140 -7 176 5 10 3 32 -16 63 -54 26 -32 47 -60 47 -63 0 -3 -26 -16 -57
-28 -81 -31 -224 -31 -305 0 -173 66 -289 229 -290 405 -1 241 183 433 424
441 109 4 215 -29 297 -94 l37 -30 132 132 133 131 -31 29 c-34 32 -197 137
-213 137 -5 0 -23 7 -40 15 -104 48 -319 67 -457 40z"/>
</g>
</svg>
