<svg xmlns="http://www.w3.org/2000/svg" xmlns:xlink="http://www.w3.org/1999/xlink" x="0px" y="0px"
	 viewBox="0 0 40 40" style="enable-background:new 0 0 40 40;" xml:space="preserve">
	<path class="st0" d="M30.9,0.2l-6,0c0,0-0.1,0-0.3,0c-1.2,0-7.5,0.3-9.2,7.1c0,0.1-0.6,1.8-0.6,5.7H9.1c-0.5,0-0.9,0.4-0.9,0.9
		v5.3c0,0.5,0.4,0.9,0.9,0.9h6.3v18.9c0,0.5,0.4,0.9,0.9,0.9h7.2c0.5,0,0.9-0.4,0.9-0.9V20h6.3c0.5,0,0.9-0.4,0.9-0.9v-5.3
		c0-0.5-0.4-0.9-0.9-0.9h-6.3v-2.3c0-1.5,1-3.1,3.6-3.1h3c0.5,0,0.9-0.4,0.9-0.9V1.1C31.9,0.6,31.5,0.2,30.9,0.2z M30,5.7H28
		c-3.8,0-5.5,2.5-5.5,5v3.2c0,0.5,0.4,0.9,0.9,0.9h6.3v3.5h-6.3c-0.5,0-0.9,0.4-0.9,0.9V38h-5.3V19.1c0-0.5-0.4-0.9-0.9-0.9H10
		v-3.4h5.7c0.2,0,0.5-0.1,0.7-0.3c0.2-0.2,0.3-0.4,0.3-0.7c-0.1-4.2,0.5-5.9,0.5-6c1.4-5.3,6-5.7,7.4-5.7c0.1,0,0.2,0,0.3,0H30
		V5.7L30,5.7z"/>
</svg>
