<svg xmlns="http://www.w3.org/2000/svg" xmlns:xlink="http://www.w3.org/1999/xlink" x="0px" y="0px"
	 viewBox="0 0 40 40" style="enable-background:new 0 0 40 40;" xml:space="preserve">
	<path class="st0" d="M39.5,7.5c-0.3-0.2-0.7-0.2-1,0c-0.2,0.2-0.5,0.3-0.9,0.4c1.2-1.5,1.2-2.5,1.2-2.8c0-0.3-0.2-0.6-0.5-0.7
		c-0.3-0.1-0.6-0.1-0.9,0.1C35.7,5.7,34,6,33,6c-1.6-1.5-3.6-2.3-5.8-2.3c-4.7,0-8.5,3.8-8.5,8.5c0,0.3,0,0.7,0.1,1
		C10.9,13.1,4.5,5.7,4.4,5.6C4.2,5.4,4,5.3,3.7,5.3C3.4,5.3,3.1,5.5,3,5.7c-2,3.4-1.2,6.7,0.2,8.9c-0.3-0.1-0.6-0.1-0.8,0
		c-0.3,0.1-0.5,0.5-0.5,0.8c-0.1,3.6,1.6,5.7,3.2,7c-0.1,0-0.2,0.1-0.3,0.2c-0.2,0.2-0.3,0.6-0.2,0.9c1.2,3.7,3.9,5.1,5.8,5.6
		c-2.2,1.5-4.9,1.9-6.9,1.9c-1.3,0-2.2-0.2-2.2-0.2c-0.4-0.1-0.8,0.1-1,0.5c-0.2,0.4,0,0.8,0.3,1.1c4.1,3.1,9.1,3.7,12.5,3.7
		c2.7,0,4.6-0.4,4.7-0.4C35.3,31.7,36,15.9,35.9,13c3.3-3,3.8-4.2,3.9-4.5C40,8.1,39.8,7.8,39.5,7.5z M34.4,12
		c-0.2,0.2-0.3,0.5-0.3,0.7c0,0.2,1,17.2-16.9,21.4c0,0-1.8,0.4-4.3,0.4c-2.3,0-5.4-0.3-8.4-1.6c2.7-0.2,6-1,8.4-3.6
		c0.2-0.3,0.3-0.6,0.2-1c-0.1-0.3-0.5-0.5-0.8-0.5c-0.2,0-3.7,0-5.5-3.3c0.8,0,1.6-0.1,2.1-0.3c0.4-0.2,0.6-0.5,0.5-0.9
		c0-0.4-0.3-0.7-0.7-0.8c-0.2,0-4.3-1-5-5.3c0.6,0.2,1.4,0.4,2.2,0.3c0.3-0.1,0.6-0.3,0.7-0.6c0.1-0.3,0-0.7-0.3-0.9
		c-0.2-0.2-4.1-3.5-2.4-8c2.3,2.3,8.4,7.7,15.9,7.3c0.3,0,0.5-0.2,0.7-0.4c0.2-0.2,0.2-0.5,0.1-0.8c-0.1-0.5-0.2-1.1-0.2-1.7
		c0-3.7,3-6.7,6.7-6.7c1.8,0,3.5,0.7,4.8,2c0.2,0.2,0.4,0.3,0.6,0.3l0.1,0c0.7,0,1.7-0.1,2.9-0.5c-0.4,0.4-0.9,0.9-1.5,1.4
		c-0.3,0.2-0.4,0.7-0.3,1c0.1,0.4,0.5,0.6,0.9,0.6c0.1,0,0.8-0.1,1.6-0.2C35.9,10.6,35.2,11.2,34.4,12z"/>
</svg>
