<svg xmlns="http://www.w3.org/2000/svg" xmlns:xlink="http://www.w3.org/1999/xlink" x="0px" y="0px"
	 viewBox="0 0 40 40" style="enable-background:new 0 0 40 40;" xml:space="preserve">
	<path class="st0" d="M31.6,0H8.4C3.8,0,0,3.8,0,8.4v23.1C0,36.2,3.8,40,8.4,40h23.1c4.7,0,8.4-3.8,8.4-8.4V8.4
		C40,3.8,36.2,0,31.6,0z M38,31.6c0,3.5-2.9,6.4-6.4,6.4H8.4C4.9,38,2,35.1,2,31.6V8.4C2,4.9,4.9,2,8.4,2h23.1
		C35.1,2,38,4.9,38,8.4L38,31.6L38,31.6z"/>
	<path class="st0" d="M30.5,19.4c-0.3-5.4-4.7-9.7-10-9.9c-6.2-0.3-11.3,4.8-11,11c0.2,5.4,4.6,9.7,9.9,10c2.3,0.1,4.4-0.5,6.1-1.6
		c0.6-0.3,0.6-1.1,0.2-1.6c0,0,0,0,0,0c-0.3-0.3-0.9-0.4-1.3-0.1c-1.3,0.8-2.9,1.3-4.5,1.3c-4.7,0-8.5-4-8.4-8.7
		c0.1-4.7,4.2-8.5,9-8.2c4.2,0.3,7.6,3.6,7.9,7.7c0.1,1.7-0.2,3.3-1,4.7c-0.2,0.4-0.1,0.9,0.2,1.2c0,0,0,0,0,0
		c0.5,0.5,1.3,0.4,1.6-0.2C30.1,23.3,30.6,21.4,30.5,19.4z"/>
	<circle class="st0" cx="30.8" cy="7.8" r="2.7"/>
</svg>
