<svg xmlns="http://www.w3.org/2000/svg" xmlns:xlink="http://www.w3.org/1999/xlink" width="220" height="1093" viewBox="0 0 220 1093">
  <metadata><?xpacket begin="﻿" id="W5M0MpCehiHzreSzNTczkc9d"?>
<x:xmpmeta xmlns:x="adobe:ns:meta/" x:xmptk="Adobe XMP Core 5.6-c138 79.159824, 2016/09/14-01:09:01        ">
   <rdf:RDF xmlns:rdf="http://www.w3.org/1999/02/22-rdf-syntax-ns#">
      <rdf:Description rdf:about=""/>
   </rdf:RDF>
</x:xmpmeta>
                                                                                                    
                                                                                                    
                                                                                                    
                                                                                                    
                                                                                                    
                                                                                                    
                                                                                                    
                                                                                                    
                                                                                                    
                                                                                                    
                                                                                                    
                                                                                                    
                                                                                                    
                                                                                                    
                                                                                                    
                                                                                                    
                                                                                                    
                                                                                                    
                                                                                                    
                                                                                                    
                           
<?xpacket end="w"?></metadata>
<defs>
    <style>
      .cls-1 {
        fill: none;
        stroke: #cefaf3;
        stroke-width: 1px;
        fill-rule: evenodd;
        opacity: 0.5;
        filter: url(#filter);
      }
    </style>
    <filter id="filter" x="1791" y="1640" width="219" height="1092" filterUnits="userSpaceOnUse">
      <feGaussianBlur result="blur" stdDeviation="9.667" in="SourceAlpha"/>
      <feComposite result="composite"/>
      <feComposite result="composite-2"/>
      <feComposite result="composite-3"/>
      <feFlood result="flood" flood-color="#8dd0c2" flood-opacity="0.2"/>
      <feComposite result="composite-4" operator="in" in2="composite-3"/>
      <feBlend result="blend" mode="screen" in2="SourceGraphic"/>
      <feBlend result="blend-2" in="SourceGraphic"/>
    </filter>
  </defs>
  <g transform="translate(-1790.5 -1639.5)" style="fill: none; filter: url(#filter)">
    <path id="Roadmap_copy_3" data-name="Roadmap copy 3" class="cls-1" d="M1825.79,1792.09l63.78-38.72q4.41,14.445,14.73,22.61t25.47,8.16q12.84,0,21.47-4.81a39.168,39.168,0,0,0,13.89-12.88,53.823,53.823,0,0,0,7.47-18.21,97.2,97.2,0,0,0,2.21-20.82V1670.9H1825.79v34.96h59.15v12.2l-59.15,32.17v41.86Zm94.09-45.74a16.127,16.127,0,0,1-5.48-6.21,28.842,28.842,0,0,1-2.63-8.41,57.665,57.665,0,0,1-.73-9.05v-17.03h34.73v19.14a56.039,56.039,0,0,1-.64,8.3,24.754,24.754,0,0,1-2.42,7.79,15.153,15.153,0,0,1-5.05,5.68,14.943,14.943,0,0,1-8.52,2.21A16.225,16.225,0,0,1,1919.88,1746.35Zm13.36,201.26a70.71,70.71,0,0,0,24.52-16.85,74.764,74.764,0,0,0,15.58-25.64,92.536,92.536,0,0,0,5.47-32.23,91.611,91.611,0,0,0-5.47-32.13,74.986,74.986,0,0,0-15.58-25.54,70.71,70.71,0,0,0-24.52-16.85,82.444,82.444,0,0,0-32.31-6.07,83.471,83.471,0,0,0-32.31,6.07,73.516,73.516,0,0,0-25.04,16.85,75.129,75.129,0,0,0-16.11,25.54,88.788,88.788,0,0,0-5.68,32.13,89.683,89.683,0,0,0,5.68,32.23,74.892,74.892,0,0,0,16.11,25.64,73.516,73.516,0,0,0,25.04,16.85,83.471,83.471,0,0,0,32.31,6.07A82.444,82.444,0,0,0,1933.24,1947.61Zm-50.93-35.37a43.417,43.417,0,0,1-14.63-8.79,40.94,40.94,0,0,1-9.58-13.4,44.19,44.19,0,0,1,0-34.33,39.779,39.779,0,0,1,9.58-13.29,44.01,44.01,0,0,1,14.63-8.68,56.179,56.179,0,0,1,36.72-.11,40.883,40.883,0,0,1,14.42,8.69,41.1,41.1,0,0,1,12.95,30.56,42.081,42.081,0,0,1-3.48,17.26,39.974,39.974,0,0,1-9.47,13.4,43.207,43.207,0,0,1-14.42,8.69,51.421,51.421,0,0,1-18.1,3.14A53.547,53.547,0,0,1,1882.31,1912.24Zm-56.52,191.1,149.02-61.54v-34.74l-149.02-62.17v38.93l29.26,10.89v57.35l-29.26,11.51v39.77Zm58.09-61.12v-37.26l51.15,18.84Zm52.2,194.03a62.406,62.406,0,0,0,22.84-19.26,77.611,77.611,0,0,0,12.21-27.21,132.029,132.029,0,0,0,3.68-30.98v-53.58H1825.79v55.26a107.855,107.855,0,0,0,4.31,30.14,79.26,79.26,0,0,0,13.48,26.69,67.97,67.97,0,0,0,23.36,19.04q14.2,7.23,33.78,7.22Q1921.765,2243.57,1936.08,2236.25Zm-56.2-34.01a35.926,35.926,0,0,1-13.47-10.89,43.887,43.887,0,0,1-7.26-15.7,76.676,76.676,0,0,1-2.21-18.52v-16.95h87.14v17.79a75.83,75.83,0,0,1-2.1,17.89,43.643,43.643,0,0,1-7.05,15.49,35.21,35.21,0,0,1-13.26,10.89q-8.325,4.08-20.95,4.08Q1888.3,2206.32,1879.88,2202.24Zm-54.09,224.06h149.02v-51.76l-95.56-32.28v-0.83l95.56-33.75v-50.92H1825.79v33.7l105.45-.84v0.63l-105.45,37.47v25.11l105.45,38.52v0.62l-105.45-.83v35.16Zm0,160.12,149.02-61.54v-34.74l-149.02-62.17v38.93l29.26,10.89v57.35l-29.26,11.51v39.77Zm58.09-61.12v-37.26l51.15,18.84Zm66.62,170.9a37.564,37.564,0,0,0,14.1-12.35,53.251,53.251,0,0,0,7.79-18.42,101.784,101.784,0,0,0,2.42-22.71V2588.3H1825.79v35.79h56.2v17.8a95.641,95.641,0,0,0,2.53,22.18,56.944,56.944,0,0,0,7.99,18.84,39.773,39.773,0,0,0,14.42,12.98q8.94,4.815,22,4.81Q1941.755,2700.7,1950.5,2696.2Zm-30.52-33.38a15.823,15.823,0,0,1-5.58-5.76,25.785,25.785,0,0,1-2.94-8.27,52.661,52.661,0,0,1-.84-9.62v-15.08h35.15v15.7a65.784,65.784,0,0,1-.64,9.32,24.254,24.254,0,0,1-2.52,8.06,14.67,14.67,0,0,1-5.26,5.65,16.2,16.2,0,0,1-8.63,2.09A16.756,16.756,0,0,1,1919.98,2662.82Z" style="stroke: inherit; filter: none; fill: inherit"/>
  </g>
  <use transform="translate(-1790.5 -1639.5)" xlink:href="#Roadmap_copy_3" style="stroke: #cefaf3; filter: none; fill: none"/>
</svg>
