<?xml version="1.0" encoding="utf-8"?>
<!-- Generator: Adobe Illustrator 20.1.0, SVG Export Plug-In . SVG Version: 6.00 Build 0)  -->
<svg version="1.1" id="Слой_1" xmlns="http://www.w3.org/2000/svg" xmlns:xlink="http://www.w3.org/1999/xlink" x="0px" y="0px"
	 viewBox="0 0 1920 344.1" style="enable-background:new 0 0 1920 344.1;" xml:space="preserve">
<style type="text/css">
	.st0{fill:#2D1949;}
	.st1{fill:#1D0F24;}
</style>
<path class="st0" d="M1617,138c-188.3-1.9-258.6,82.9-419.1,82c-227.7-3.3-223.9-114.9-410.1-115c-124.6-0.1-200.4,87.2-319,85
	C330.1,187.4,301.8,1.5,144.8,0C94.2-0.5,45.2,13.9,0,35.8v308.3h1920V175.5C1852.7,157.9,1747.7,138,1617,138z"/>
<path class="st1" d="M1565.1,244c-188.3-1.9-258.6,82.9-419.1,82C918.4,322.7,922.1,211.1,736,211c-124.6-0.1-200.4,87.2-319,85
	c-138.7-2.6-167-188.5-324.1-190C61.1,105.7,30,111.3,0,120.9v223.3h1920v-47.4C1864.2,278.4,1736.8,244,1565.1,244z"/>
</svg>
