<?xml version="1.0" encoding="utf-8"?>
<!-- Generator: Adobe Illustrator 20.1.0, SVG Export Plug-In . SVG Version: 6.00 Build 0)  -->
<svg version="1.1" id="Слой_1" xmlns="http://www.w3.org/2000/svg" xmlns:xlink="http://www.w3.org/1999/xlink" x="0px" y="0px"
	 viewBox="0 0 1920 338.9" style="enable-background:new 0 0 1920 338.9;" xml:space="preserve">
<style type="text/css">
	.st0{opacity:0.3;fill:#5331A0;enable-background:new    ;}
	.st1{fill:#FFFFFF;}
</style>
<path class="st0" d="M1920,204.3c-30.7,10.1-62.7,16-95.4,15.7c-157-1.5-185.3-187.4-324-190c-118.7-2.2-194.4,85.1-319.1,85
	C995.4,114.9,999.2,3.3,771.5,0C611-0.8,540.7,83.9,352.4,82C183.2,82,57,48.6,0,30.1v351.2h1920V204.3z"/>
<path class="st1" d="M1920,211.5c-71.1,62.7-171.6,128.5-278.9,127.5c-157-1.5-185.3-187.4-324-190c-118.7-2.2-194.4,85.1-319.1,85
	C811.9,233.9,815.7,122.3,588,119c-160.5-0.9-230.7,83.9-419.1,82c-62.6,0-119.4-4.6-168.9-11.3v191.6h1920V211.5z"/>
</svg>
